<svg id="Ebene_1" data-name="Ebene 1" xmlns="http://www.w3.org/2000/svg" viewBox="0 0 335.8 84.09"><defs><style>.cls-1{fill:#1d1d1b;}.cls-2{fill:#0047bb;}.cls-3{fill:#c80000;}.cls-4{fill:#009c74;}.cls-5{fill:#ae5cb1;}.cls-6{fill:#ff8200;}</style></defs><path class="cls-1" d="M195.29,110a.73.73,0,0,0,.77.93h2.63a.79.79,0,0,0,.73-.57l2.91-18.1h.17l7.33,18.63a.72.72,0,0,0,.69.44h.72a.68.68,0,0,0,.69-.44l7.29-18.63h.12l3,18.1a.84.84,0,0,0,.77.57h2.63a.69.69,0,0,0,.73-.93l-5-27.22a.82.82,0,0,0-.73-.61h-.65a.77.77,0,0,0-.68.45L211,103.33h-.16l-8.47-20.69a.82.82,0,0,0-.68-.45H201a.82.82,0,0,0-.73.61Z" transform="translate(-74.65 -54.91)"/><path class="cls-1" d="M139.63,110.79a.79.79,0,0,0,.73.56H141a.77.77,0,0,0,.69-.44l7-20.13h.2L156,110.91a.77.77,0,0,0,.69.44h.64a.77.77,0,0,0,.73-.56l7.66-27.22a.7.7,0,0,0-.73-1h-2.72a.82.82,0,0,0-.72.57l-4.82,18.59h-.17l-6.68-19.12a.73.73,0,0,0-.69-.45h-.73a.73.73,0,0,0-.68.45l-6.61,19.12h-.16l-4.9-18.59a.82.82,0,0,0-.73-.57h-2.71a.7.7,0,0,0-.73,1Zm-21.95-9.48,4.94-11.1h.21l5,11.1ZM110.15,111h2.55a1,1,0,0,0,.93-.61c.81-1.86,1.66-3.68,2.47-5.55h13.25l2.51,5.55a.93.93,0,0,0,.93.61h2.55a.71.71,0,0,0,.69-1L123.68,82.64a1,1,0,0,0-.69-.45h-.41a1,1,0,0,0-.68.45L109.46,109.9a.71.71,0,0,0,.69,1M91.28,79.28A2.34,2.34,0,0,0,93.59,77a2.3,2.3,0,0,0-2.31-2.27A2.26,2.26,0,0,0,89,77a2.3,2.3,0,0,0,2.27,2.31m9.27,0A2.33,2.33,0,0,0,102.86,77a2.3,2.3,0,0,0-2.31-2.27A2.27,2.27,0,0,0,98.28,77a2.3,2.3,0,0,0,2.27,2.31M85.41,96.81A10.51,10.51,0,1,1,95.89,107.3,10.61,10.61,0,0,1,85.41,96.81m-4,0A14.56,14.56,0,1,0,95.89,82.19,14.44,14.44,0,0,0,81.36,96.81" transform="translate(-74.65 -54.91)"/><rect class="cls-1" x="190.64" y="27.69" width="4.21" height="28.35" rx="0.77"/><path class="cls-1" d="M311.56,110.18a.8.8,0,0,0,.77.77h2.55a.77.77,0,0,0,.77-.77V90.46h0l17.58,20.89h1.05a.76.76,0,0,0,.77-.73V83.37a.79.79,0,0,0-.77-.77h-2.59a.77.77,0,0,0-.77.77v19.15h0L313.34,82.19h-1a.77.77,0,0,0-.77.73Z" transform="translate(-74.65 -54.91)"/><path class="cls-1" d="M371.26,110.18a.78.78,0,0,0,.77.77h16.2a.77.77,0,0,0,.77-.77V108a.77.77,0,0,0-.77-.77h-12.8v-8.7h10.82a.78.78,0,0,0,.77-.77V95.44a.8.8,0,0,0-.77-.77H375.43V86.41h12.8a.77.77,0,0,0,.77-.77V83.37a.76.76,0,0,0-.77-.77H372a.77.77,0,0,0-.77.77Z" transform="translate(-74.65 -54.91)"/><rect class="cls-2" x="48.94" y="0.19" width="48.94" height="7"/><rect class="cls-2" y="77.09" width="48.94" height="7"/><rect class="cls-3" x="161.56" width="6.44" height="48.94"/><rect class="cls-4" x="217.49" width="6.44" height="48.94"/><rect class="cls-5" x="273.43" width="6.44" height="48.94"/><rect class="cls-6" x="329.36" width="6.44" height="48.94"/></svg>