<?xml version="1.0" encoding="UTF-8" standalone="no"?>
<!-- Created with Inkscape (http://www.inkscape.org/) -->

<svg
   xmlns:dc="http://purl.org/dc/elements/1.1/"
   xmlns:cc="http://creativecommons.org/ns#"
   xmlns:rdf="http://www.w3.org/1999/02/22-rdf-syntax-ns#"
   xmlns:svg="http://www.w3.org/2000/svg"
   xmlns="http://www.w3.org/2000/svg"
   xmlns:sodipodi="http://sodipodi.sourceforge.net/DTD/sodipodi-0.dtd"
   xmlns:inkscape="http://www.inkscape.org/namespaces/inkscape"
   width="21.166666mm"
   height="10.812mm"
   viewBox="0 0 21.166666 10.812001"
   version="1.1"
   id="svg8"
   inkscape:version="0.92.2 (5c3e80d, 2017-08-06)"
   sodipodi:docname="logo.svg">
  <defs
     id="defs2" />
  <sodipodi:namedview
     id="base"
     pagecolor="#424242"
     bordercolor="#666666"
     borderopacity="1.0"
     inkscape:pageopacity="0"
     inkscape:pageshadow="2"
     inkscape:zoom="1"
     inkscape:cx="-106.46168"
     inkscape:cy="-6.7590536"
     inkscape:document-units="mm"
     inkscape:current-layer="layer1"
     showgrid="false"
     fit-margin-top="0"
     fit-margin-left="0"
     fit-margin-right="0"
     fit-margin-bottom="0" />
  <metadata
     id="metadata5">
    <rdf:RDF>
      <cc:Work
         rdf:about="">
        <dc:format>image/svg+xml</dc:format>
        <dc:type
           rdf:resource="http://purl.org/dc/dcmitype/StillImage" />
        <dc:title></dc:title>
      </cc:Work>
    </rdf:RDF>
  </metadata>
  <g
     inkscape:label="Layer 1"
     inkscape:groupmode="layer"
     id="layer1"
     transform="translate(-70.450923,-116.18136)">
    <g
       id="g922"
       transform="matrix(0.60039307,0,0,0.60039307,28.152677,50.747428)"
       style="stroke-width:1.6655755">
      <g
         id="flowRoot815"
         style="font-style:normal;font-variant:normal;font-weight:normal;font-stretch:normal;font-size:40px;line-height:1.25;font-family:'Baskerville Old Face';-inkscape-font-specification:'Baskerville Old Face';letter-spacing:0px;word-spacing:0px;fill:#ffffff;fill-opacity:1;stroke:none;stroke-width:1.84356511"
         transform="matrix(0.21596041,0,0,0.26458333,36.239758,-19.276785)"
         aria-label="OBL">
        <path
           inkscape:connector-curvature="0"
           id="path909"
           style="font-style:normal;font-variant:normal;font-weight:normal;font-stretch:normal;font-size:96px;line-height:2;font-family:'Engravers MT';-inkscape-font-specification:'Engravers MT';letter-spacing:-5.39000225px;fill:#ffffff;fill-opacity:1;stroke-width:2.0405755"
           d="m 197.22656,484.76956 q 9.1875,0 16.78125,2.95313 7.64063,2.90625 13.26563,8.53125 4.73437,4.78125 7.3125,10.6875 2.57812,5.85937 2.57812,12 0,9.23437 -5.25,17.01562 -5.20312,7.78125 -14.20312,12.32813 -8.95313,4.54687 -19.64063,4.54687 -8.15625,0 -15.375,-2.57812 -7.17187,-2.57813 -12.65625,-7.26563 -5.48437,-4.73437 -8.57812,-11.01562 -3.04688,-6.28125 -3.04688,-13.125 0,-9.09375 5.29688,-16.96875 5.29687,-7.875 14.20312,-12.46875 8.90625,-4.64063 19.3125,-4.64063 z m 1.21875,1.6875 q -4.26562,0 -8.0625,1.5 -3.75,1.45313 -6.32812,4.17188 -2.8125,2.95312 -4.82813,7.03125 -1.96875,4.03125 -3,9.04687 -0.98437,4.96875 -0.98437,10.73438 0,7.21875 1.59375,13.17187 1.59375,5.90625 4.59375,10.21875 3,4.26563 7.17187,6.51563 4.17188,2.25 9.28125,2.25 6.9375,0 12.04688,-3.9375 5.15625,-3.98438 7.875,-11.34375 2.76562,-7.35938 2.76562,-17.48438 0,-6.5625 -1.5,-12.28125 -1.5,-5.71875 -4.3125,-9.9375 -2.8125,-4.26562 -6.79687,-6.75 -1.96875,-1.3125 -4.54688,-2.10937 -2.57812,-0.79688 -4.96875,-0.79688 z" />
        <path
           inkscape:connector-curvature="0"
           id="path911"
           style="font-style:normal;font-variant:normal;font-weight:normal;font-stretch:normal;font-size:53.33333588px;font-family:'Engravers MT';-inkscape-font-specification:'Engravers MT';letter-spacing:-5.39000225px;fill:#ffffff;fill-opacity:1;stroke-width:1.84356511"
           d="m 255.20115,516.09769 v 15.9375 h 7.89062 q 9.71354,0 9.71354,-8.46354 0,-3.80209 -2.08333,-5.625 -2.05729,-1.84896 -6.38021,-1.84896 z m 0,16.95312 v 17.60417 h 8.17708 q 5.18229,0 7.94271,-2.29167 2.76042,-2.31771 2.76042,-6.5625 0,-3.61979 -2.23959,-5.75521 -1.69271,-1.6927 -4.14062,-2.34375 -2.44792,-0.65104 -7.16146,-0.65104 z m -15.36459,-17.86458 h 26.66667 q 3.09896,0 5.98958,0.625 2.89063,0.59896 4.53125,1.61458 2.03126,1.19792 3.15105,2.91667 1.11979,1.69271 1.11979,3.64583 0,3.17709 -3.51563,5.49479 -1.40625,0.9375 -3.02083,1.5625 -1.61458,0.625 -4.55729,1.4323 v 0.10416 q 3.75,0.70313 6.17187,1.69271 6.61459,2.91667 6.61459,8.02083 0,2.8125 -2.00521,4.92188 -1.97917,2.08333 -5.67709,3.22917 -3.69791,1.11979 -8.72395,1.11979 h -26.7448 v -1.01563 h 1.06771 q 3.35938,0 4.97396,-1.61458 1.64063,-1.64063 1.64063,-5 v -21.17188 q 0,-3.38541 -1.64063,-5.02604 -1.61458,-1.64062 -4.97396,-1.64062 h -1.06771 z" />
        <path
           inkscape:connector-curvature="0"
           id="path913"
           style="font-style:normal;font-variant:normal;font-weight:normal;font-stretch:normal;font-size:53.33333588px;font-family:'Engravers MT';-inkscape-font-specification:'Engravers MT';letter-spacing:-5.39000225px;fill:#ffffff;fill-opacity:1;stroke-width:1.84356511"
           d="m 281.11323,515.18623 h 24.81771 v 0.96354 h -2.63021 q -3.35938,0 -4.97396,1.61458 -1.61458,1.61459 -1.61458,5 v 27.83855 h 9.42708 q 2.78646,0 5.26042,-1.22396 2.47396,-1.25 4.29687,-3.46354 1.09375,-1.38021 1.92709,-2.73438 0.83333,-1.35417 1.58854,-3.28125 0.75521,-1.92708 1.48437,-4.42708 h 0.96354 v 16.09375 h -40.54687 l -0.0521,-0.96354 h 1.35417 q 6.61458,0 6.61458,-6.66667 v -21.17188 q 0,-6.61458 -6.61458,-6.61458 h -1.30208 z" />
      </g>
      <g
         id="flowRoot815-8"
         style="font-style:italic;font-variant:normal;font-weight:bold;font-stretch:normal;font-size:40px;line-height:1.25;font-family:Georgia;-inkscape-font-specification:'Georgia Bold Italic';letter-spacing:0px;word-spacing:0px;fill:#000000;fill-opacity:1;stroke:none;stroke-width:4.10329723"
         transform="matrix(0.10739741,0,0,0.10739741,59.770292,58.706998)"
         aria-label="e">
        <path
           inkscape:connector-curvature="0"
           id="path906"
           style="font-style:italic;font-variant:normal;font-weight:bold;font-stretch:normal;font-size:96px;line-height:2;font-family:Georgia;-inkscape-font-specification:'Georgia Bold Italic';letter-spacing:-1.08000004px;stroke-width:4.10329723"
           d="m 177.11719,533.51158 q -5.625,0 -9.89063,-1.54687 -4.21875,-1.5 -6.98437,-4.21875 -2.71875,-2.71875 -4.07813,-6.32813 -1.35937,-3.60937 -1.35937,-7.96875 0,-5.53125 2.0625,-10.73437 2.0625,-5.20313 6.14062,-9.375 3.84375,-3.98438 9.75,-6.46875 5.90625,-2.48438 13.03125,-2.48438 8.39063,0 12.75,2.67188 4.40625,2.67187 4.40625,8.01562 0,5.10938 -3.79687,8.8125 -3.79688,3.65625 -10.3125,5.4375 -5.15625,1.54688 -8.8125,2.20313 -3.60938,0.65625 -8.85938,1.21875 0.0937,2.0625 0.5625,4.64062 0.46875,2.57813 1.40625,4.40625 1.125,2.10938 3.1875,3.375 2.0625,1.21875 5.25,1.21875 5.53125,0 9.375,-2.10937 3.89063,-2.15625 7.40625,-6.79688 l 3.42188,2.85938 q -4.21875,6 -10.82813,9.60937 -6.5625,3.5625 -13.82812,3.5625 z m 10.59375,-37.125 q 0,-3.98437 -1.45313,-6.09375 -1.45312,-2.15625 -4.03125,-2.15625 -3.60937,0 -6.84375,5.90625 -3.1875,5.85938 -4.07812,14.85938 2.76562,-0.32813 5.48437,-0.84375 2.71875,-0.51563 4.3125,-1.21875 3.51563,-1.54688 5.0625,-3.98438 1.54688,-2.4375 1.54688,-6.46875 z" />
      </g>
    </g>
    <flowRoot
       xml:space="preserve"
       id="flowRoot815-2"
       style="font-style:normal;font-variant:normal;font-weight:normal;font-stretch:normal;font-size:40px;line-height:1.25;font-family:'Baskerville Old Face';-inkscape-font-specification:'Baskerville Old Face';letter-spacing:0px;word-spacing:0px;fill:#000000;fill-opacity:1;stroke:none;stroke-width:1.10686374"
       transform="matrix(0.21596041,0,0,0.26458333,5.613874,0.60597679)"><flowRegion
         id="flowRegion817-7"
         style="font-style:normal;font-variant:normal;font-weight:normal;font-stretch:normal;font-family:'Baskerville Old Face';-inkscape-font-specification:'Baskerville Old Face';stroke-width:1.10686374"><rect
           id="rect819-3"
           width="418.20316"
           height="214.15234"
           x="151.52289"
           y="409.35199"
           style="font-style:normal;font-variant:normal;font-weight:normal;font-stretch:normal;font-family:'Baskerville Old Face';-inkscape-font-specification:'Baskerville Old Face';stroke-width:1.10686374" /></flowRegion><flowPara
         id="flowPara821-8"
         style="font-style:normal;font-variant:normal;font-weight:normal;font-stretch:normal;font-size:96px;line-height:2;font-family:'Engravers MT';-inkscape-font-specification:'Engravers MT';letter-spacing:-5.39000225px;stroke-width:1.22514737" /></flowRoot>  </g>
</svg>
